<svg width="46" height="31" viewBox="0 0 46 31" fill="none" xmlns="http://www.w3.org/2000/svg">
<path d="M11.6428 29C13.7731 29 15.5 27.273 15.5 25.1428C15.5 23.0126 13.7731 21.2857 11.6428 21.2857C9.51261 21.2857 7.78571 23.0126 7.78571 25.1428C7.78571 27.273 9.51261 29 11.6428 29Z" fill="#006B3C" stroke="#006B3C" stroke-width="2.17049" stroke-linejoin="round"/>
<path d="M33.8214 29C35.9516 29 37.6786 27.273 37.6786 25.1428C37.6786 23.0126 35.9516 21.2857 33.8214 21.2857C31.6912 21.2857 29.9643 23.0126 29.9643 25.1428C29.9643 27.273 31.6912 29 33.8214 29Z" fill="#006B3C" stroke="#006B3C" stroke-width="2.17049" stroke-linejoin="round"/>
<path d="M7.78571 25.1429H2V2H29.9643V25.1429H15.5" fill="#006B3C"/>
<path d="M7.78571 25.1429H2V2H29.9643V25.1429H15.5" stroke="#006B3C" stroke-width="2.17049" stroke-linecap="round" stroke-linejoin="round"/>
<path d="M29.9643 25.1428V8.74997H38.2296L44.4286 16.9464V25.1428H38.4608" fill="#006B3C"/>
<path d="M29.9643 25.1428V8.74997H38.2296L44.4286 16.9464V25.1428H38.4608" stroke="#006B3C" stroke-width="2.17049" stroke-linecap="round" stroke-linejoin="round"/>
</svg>
